<svg xmlns="http://www.w3.org/2000/svg" xmlns:xlink="http://www.w3.org/1999/xlink" width="213.714" height="215.068" viewBox="0 0 213.714 215.068">
  <defs>
    <linearGradient id="linear-gradient" x1="0.397" y1="-0.354" x2="-0.376" y2="1.649" gradientUnits="objectBoundingBox">
      <stop offset="0" stop-color="#4f52ff"/>
      <stop offset="1" stop-color="#4042e2"/>
    </linearGradient>
    <linearGradient id="linear-gradient-2" x1="-0.898" y1="0.932" x2="-0.675" y2="-0.163" gradientUnits="objectBoundingBox">
      <stop offset="0" stop-color="#09005d"/>
      <stop offset="1" stop-color="#1a0f91"/>
    </linearGradient>
    <linearGradient id="linear-gradient-3" x1="-0.284" y1="-1.658" x2="-1.176" y2="3.408" xlink:href="#linear-gradient-2"/>
    <linearGradient id="linear-gradient-4" x1="5.381" y1="0.417" x2="6.04" y2="1.226" xlink:href="#linear-gradient-2"/>
    <linearGradient id="linear-gradient-5" x1="7.783" y1="0.26" x2="9.144" y2="1.995" xlink:href="#linear-gradient-2"/>
    <linearGradient id="linear-gradient-6" x1="1.61" y1="0.212" x2="1.158" y2="0.899" gradientUnits="objectBoundingBox">
      <stop offset="0" stop-color="#febbba"/>
      <stop offset="1" stop-color="#ff928e"/>
    </linearGradient>
    <linearGradient id="linear-gradient-7" x1="1.576" y1="-0.457" x2="0.358" y2="0.524" gradientUnits="objectBoundingBox">
      <stop offset="0" stop-color="#00affe"/>
      <stop offset="1" stop-color="#10a3e5"/>
    </linearGradient>
    <linearGradient id="linear-gradient-8" x1="0.755" y1="0.791" x2="1.452" y2="-1.379" xlink:href="#linear-gradient-6"/>
    <linearGradient id="linear-gradient-9" x1="-2.192" y1="1.062" x2="-2.081" y2="0.1" xlink:href="#linear-gradient-6"/>
    <linearGradient id="linear-gradient-10" x1="-0.618" y1="0.82" x2="-0.929" y2="-0.114" xlink:href="#linear-gradient-6"/>
    <linearGradient id="linear-gradient-11" x1="-0.349" y1="-0.467" x2="-0.172" y2="0.954" gradientUnits="objectBoundingBox">
      <stop offset="0" stop-color="#bfbfbf"/>
      <stop offset="1" stop-color="#2e2d3e"/>
    </linearGradient>
    <linearGradient id="linear-gradient-12" x1="-8.072" y1="2.058" x2="-9.545" y2="-0.895" xlink:href="#linear-gradient-6"/>
    <linearGradient id="linear-gradient-13" x1="3.36" y1="0.5" x2="4.36" y2="0.5" xlink:href="#linear-gradient-2"/>
    <linearGradient id="linear-gradient-14" x1="2.391" y1="-0.604" x2="1.651" y2="0.973" xlink:href="#linear-gradient-2"/>
    <linearGradient id="linear-gradient-15" x1="2.382" y1="-4.979" x2="-0.903" y2="4.529" gradientUnits="objectBoundingBox">
      <stop offset="0" stop-color="#e1473d"/>
      <stop offset="1" stop-color="#e9605a"/>
    </linearGradient>
    <linearGradient id="linear-gradient-16" x1="1.098" y1="-5.386" x2="0.088" y2="4.552" xlink:href="#linear-gradient-15"/>
    <linearGradient id="linear-gradient-17" x1="0.87" y1="-5.586" x2="0.313" y2="3.494" xlink:href="#linear-gradient-15"/>
  </defs>
  <g id="_2fa-img-d" data-name="2fa-img-d" transform="translate(-463.815 -455)">
    <path id="Path_642" data-name="Path 642" d="M741.716,669.763c-19.84,47.4-72.69,73.952-118.521,66.789-7.458-1.166-27.9-4.637-46-21.016-34.847-31.531-42.3-93.966-14.189-137.965,20.459-32.024,57.134-50.177,91.982-49.269,7.506.2,36.274,1.4,61.555,22.553a95.725,95.725,0,0,1,19.285,22.2C753.156,600.557,754.646,638.873,741.716,669.763Z" transform="translate(-75.683 -67.642)" fill="#181a20"/>
    <g id="Group_809" data-name="Group 809" transform="translate(463.815 515.691)">
      <path id="Path_643" data-name="Path 643" d="M464.992,1322.736a39.214,39.214,0,0,1,55.425-26.518,4.551,4.551,0,0,0,6.429-3.041c6.95-27.621,31.41-48.026,60.519-48.026,34.517,0,62.5,28.691,62.5,64.082,0,.94-.019,2.223-.035,3.455.122,2.646,1.249,3.77,2.932,4.052,13.524,1.443,24.152,12.874,24.742,26.974a28.271,28.271,0,0,1-27.977,29.6H503.345C478.321,1373.315,458.728,1349.474,464.992,1322.736Z" transform="translate(-463.815 -1245.151)" fill="url(#linear-gradient)"/>
      <path id="Path_644" data-name="Path 644" d="M613.905,1493.182a35.012,35.012,0,0,1,49.487-23.677,4.064,4.064,0,0,0,5.74-2.715c6.205-24.662,28.045-42.881,54.036-42.881,30.82,0,55.8,25.617,55.8,57.217,0,.839-.016,1.985-.031,3.084.109,2.363,1.116,3.366,2.618,3.618a25.363,25.363,0,0,1-2.889,50.514H648.149C625.806,1538.341,608.312,1517.055,613.905,1493.182Z" transform="translate(-601.406 -1410.178)" fill="#91b3fa" opacity="0.21"/>
    </g>
    <g id="Group_814" data-name="Group 814" transform="translate(483.828 587.896)">
      <path id="Path_645" data-name="Path 645" d="M828.247,2258.464a2.161,2.161,0,0,0,2.156,2.154H947a2.161,2.161,0,0,0,2.156-2.154l.97-67.005a3.755,3.755,0,0,0-3.954-3.324l-113.951-2.948a5.434,5.434,0,0,0-5.575,5.557Z" transform="translate(-818.788 -2185.185)" fill="url(#linear-gradient-2)"/>
      <path id="Path_646" data-name="Path 646" d="M855.688,2287.108a2.046,2.046,0,0,0,2.04,2.04H969.5a2.046,2.046,0,0,0,2.04-2.04l.916-60.828a5.02,5.02,0,0,0-5.262-4.9l-109.212-2.93a3.819,3.819,0,0,0-3.918,3.908Z" transform="translate(-844.1 -2215.895)" fill="#7d97f4"/>
      <g id="Group_810" data-name="Group 810" transform="translate(86.874 5.71)">
        <path id="Path_647" data-name="Path 647" d="M2364.2,2669.614h0a.3.3,0,0,1-.3-.3l.073-4.933a.3.3,0,0,1,.3-.294h0a.3.3,0,0,1,.3.3l-.072,4.933A.3.3,0,0,1,2364.2,2669.614Z" transform="translate(-2324.846 -2633.009)" fill="#fff"/>
        <path id="Path_648" data-name="Path 648" d="M1894.928,2284.044h0a.3.3,0,0,1-.295-.3l.277-18.894a3.549,3.549,0,0,0-1.012-2.657,4.992,4.992,0,0,0-3.3-1.127l-34.907-.936a.3.3,0,0,1-.291-.307.286.286,0,0,1,.307-.291l34.886.936a5.492,5.492,0,0,1,3.722,1.293,4.126,4.126,0,0,1,1.2,3.092l-.278,18.9A.3.3,0,0,1,1894.928,2284.044Z" transform="translate(-1855.393 -2259.528)" fill="#fff"/>
      </g>
      <rect id="Rectangle_319" data-name="Rectangle 319" width="137.463" height="5.887" rx="2.944" transform="translate(137.463 80.995) rotate(180)" fill="url(#linear-gradient-3)"/>
      <path id="Path_649" data-name="Path 649" d="M954.77,2356.007H911.735a2.873,2.873,0,0,1-2.873-2.873v-56.174a2.873,2.873,0,0,1,2.983-2.871l43.035,1.647a2.873,2.873,0,0,1,2.763,2.871v54.528A2.873,2.873,0,0,1,954.77,2356.007Z" transform="translate(-894.691 -2285.721)" fill="#91b3fa"/>
      <g id="Group_811" data-name="Group 811" transform="translate(22.604 30.403)">
        <rect id="Rectangle_320" data-name="Rectangle 320" width="29.325" height="3.788" rx="1.894" fill="#fff" opacity="0.51"/>
        <rect id="Rectangle_321" data-name="Rectangle 321" width="29.325" height="3.788" rx="1.894" transform="translate(0.058 6.05)" fill="#fff" opacity="0.51"/>
        <path id="Rectangle_322" data-name="Rectangle 322" d="M1.895,0H27.431a1.894,1.894,0,0,1,1.894,1.894v0a1.894,1.894,0,0,1-1.894,1.894H1.894A1.894,1.894,0,0,1,0,1.895v0A1.895,1.895,0,0,1,1.895,0Z" transform="translate(0.229 12.226)" fill="#fff" opacity="0.51"/>
        <path id="Rectangle_323" data-name="Rectangle 323" d="M1.894,0H27.431a1.894,1.894,0,0,1,1.894,1.894v0a1.894,1.894,0,0,1-1.894,1.894H1.894A1.894,1.894,0,0,1,0,1.894v0A1.894,1.894,0,0,1,1.894,0Z" transform="translate(0.287 18.276)" fill="#fff" opacity="0.51"/>
      </g>
      <g id="Group_813" data-name="Group 813" transform="translate(72.285 10.287)">
        <rect id="Rectangle_324" data-name="Rectangle 324" width="42.161" height="3.788" rx="1.894" transform="translate(0 20.112)" fill="#fff" opacity="0.51"/>
        <rect id="Rectangle_325" data-name="Rectangle 325" width="42.161" height="3.788" rx="1.894" transform="translate(0.13 26.166)" fill="#fff" opacity="0.51"/>
        <path id="Rectangle_326" data-name="Rectangle 326" d="M1.894,0H23.089a1.894,1.894,0,0,1,1.894,1.894v0a1.894,1.894,0,0,1-1.894,1.894H1.894A1.894,1.894,0,0,1,0,1.894v0A1.894,1.894,0,0,1,1.894,0Z" transform="translate(0.13 32.342)" fill="#fff" opacity="0.51"/>
        <g id="Group_812" data-name="Group 812" transform="translate(11.117)" opacity="0.51">
          <path id="Path_650" data-name="Path 650" d="M1838.549,2325.108h-.642a.578.578,0,0,1-.578-.577v-2.2a1.423,1.423,0,0,0-1.423-1.423h-3.979a1.423,1.423,0,0,0-1.423,1.423v2.2a.577.577,0,0,1-.577.577h-.642a.577.577,0,0,1-.577-.577v-2.2a3.22,3.22,0,0,1,3.22-3.22h3.979a3.22,3.22,0,0,1,3.22,3.22v2.2A.577.577,0,0,1,1838.549,2325.108Z" transform="translate(-1827.285 -2319.116)" fill="#fff"/>
          <path id="Path_651" data-name="Path 651" d="M1822.24,2403.874h-10.856a1.2,1.2,0,0,0-1.2,1.2v8.332a1.2,1.2,0,0,0,1.2,1.2h10.856a1.2,1.2,0,0,0,1.2-1.2v-8.332A1.2,1.2,0,0,0,1822.24,2403.874Zm-3.875,8.052a.446.446,0,0,1-.434.551h-2.239a.446.446,0,0,1-.434-.551l.522-2.174a2.012,2.012,0,1,1,2.062,0Z" transform="translate(-1810.18 -2397.364)" fill="#fff"/>
        </g>
      </g>
    </g>
    <g id="Group_823" data-name="Group 823" transform="translate(545.674 455)">
      <g id="Group_818" data-name="Group 818" transform="translate(0 0)">
        <g id="Group_815" data-name="Group 815" transform="translate(0 41.535)">
          <path id="Path_652" data-name="Path 652" d="M2365.143,1113.643a.255.255,0,0,1-.125-.032.259.259,0,0,1-.1-.352q.25-.449.485-.9a.259.259,0,0,1,.459.237q-.239.462-.492.918A.258.258,0,0,1,2365.143,1113.643Z" transform="translate(-2300.724 -1103.268)" fill="#91b3fa"/>
          <path id="Path_653" data-name="Path 653" d="M1577.334,1074.291q-.229,0-.458,0a.259.259,0,0,1,0-.517h0c.669.009,1.344,0,2.012-.032a.263.263,0,0,1,.27.247.259.259,0,0,1-.247.27C1578.394,1074.278,1577.861,1074.291,1577.334,1074.291Zm-3.742-.2-.028,0c-.676-.073-1.356-.167-2.023-.279a.259.259,0,1,1,.085-.51c.657.11,1.328.2,1.993.275a.259.259,0,0,1-.027.516Zm8.6-.139a.259.259,0,0,1-.036-.515c.662-.093,1.329-.207,1.984-.339a.259.259,0,1,1,.1.507c-.664.134-1.342.249-2.014.344Zm-13.823-.836a.252.252,0,0,1-.067-.009c-.656-.175-1.314-.372-1.957-.585a.258.258,0,0,1,.163-.491c.634.209,1.282.4,1.928.576a.259.259,0,0,1-.066.508Zm19.017-.309a.259.259,0,0,1-.075-.506c.641-.194,1.283-.41,1.908-.64a.259.259,0,0,1,.179.485c-.635.234-1.287.453-1.937.65A.255.255,0,0,1,1587.381,1072.8Zm-24.034-1.454a.26.26,0,0,1-.1-.022c-.622-.274-1.242-.57-1.844-.879a.259.259,0,0,1,.236-.46c.593.3,1.2.6,1.816.865a.259.259,0,0,1-.1.5Zm28.99-.477a.259.259,0,0,1-.113-.492c.6-.29,1.2-.6,1.787-.927a.259.259,0,0,1,.251.452c-.593.33-1.2.647-1.814.941A.258.258,0,0,1,1592.337,1070.874Zm-33.674-2.037a.257.257,0,0,1-.139-.041c-.571-.366-1.138-.754-1.686-1.153a.259.259,0,1,1,.3-.418c.539.393,1.1.774,1.661,1.135a.259.259,0,0,1-.14.476Zm38.272-.635a.259.259,0,0,1-.147-.471c.55-.38,1.1-.78,1.624-1.191a.259.259,0,1,1,.318.408c-.535.417-1.09.824-1.648,1.209A.26.26,0,0,1,1596.935,1068.2Zm-42.511-2.571a.259.259,0,0,1-.171-.065c-.506-.448-1.007-.918-1.49-1.4a.259.259,0,0,1,.365-.367c.475.472.969.936,1.468,1.377a.258.258,0,0,1-.171.452Zm46.648-.776a.259.259,0,0,1-.177-.447c.487-.459.966-.938,1.424-1.423a.259.259,0,0,1,.376.355c-.465.492-.951.978-1.445,1.444A.259.259,0,0,1,1601.072,1064.854Zm-50.352-3.042a.259.259,0,0,1-.2-.093c-.433-.52-.857-1.061-1.261-1.607a.259.259,0,1,1,.416-.307c.4.538.815,1.071,1.242,1.583a.259.259,0,0,1-.2.424Zm53.931-.891a.256.256,0,0,1-.158-.055.258.258,0,0,1-.045-.363c.412-.529.812-1.075,1.189-1.624a.259.259,0,1,1,.426.293c-.383.557-.789,1.111-1.207,1.648A.259.259,0,0,1,1604.651,1060.921Zm-57.012-3.444a.259.259,0,0,1-.222-.125c-.351-.584-.687-1.183-1-1.782a.259.259,0,0,1,.459-.239c.308.59.639,1.18.984,1.755a.259.259,0,0,1-.221.392Zm-2.377-4.758a.259.259,0,0,1-.24-.161c-.256-.63-.5-1.274-.712-1.915a.258.258,0,1,1,.49-.166c.214.63.449,1.265.7,1.886a.258.258,0,0,1-.24.356Z" transform="translate(-1543.165 -1046.111)" fill="#91b3fa"/>
          <path id="Path_654" data-name="Path 654" d="M1530.038,997.272a.259.259,0,0,1-.252-.2q-.119-.508-.223-1.017a.258.258,0,0,1,.507-.1q.1.5.22,1a.259.259,0,0,1-.193.311A.263.263,0,0,1,1530.038,997.272Z" transform="translate(-1529.559 -995.745)" fill="#91b3fa"/>
        </g>
        <g id="Group_816" data-name="Group 816" transform="translate(4.606)">
          <path id="Path_655" data-name="Path 655" d="M1589.781,655.675a.259.259,0,0,1-.218-.4q.277-.439.568-.873a.259.259,0,1,1,.429.288q-.287.427-.56.86A.258.258,0,0,1,1589.781,655.675Z" transform="translate(-1589.523 -638.983)" fill="#91b3fa"/>
          <path id="Path_656" data-name="Path 656" d="M1684,480.354a.259.259,0,0,1-.248-.186c-.2-.674-.419-1.351-.658-2.011a.259.259,0,0,1,.486-.176c.243.67.467,1.357.668,2.041a.259.259,0,0,1-.248.331Zm-2-5.22a.258.258,0,0,1-.233-.146c-.305-.634-.633-1.266-.975-1.878a.259.259,0,0,1,.451-.253c.347.621.681,1.262.99,1.906a.259.259,0,0,1-.233.371Zm-2.824-4.826a.258.258,0,0,1-.212-.11c-.4-.574-.828-1.145-1.266-1.7a.259.259,0,0,1,.4-.322c.444.559.877,1.138,1.285,1.721a.259.259,0,0,1-.212.407Zm-55.031-2.257a.259.259,0,0,1-.2-.424c.454-.546.932-1.088,1.422-1.61a.259.259,0,1,1,.377.354c-.483.514-.954,1.047-1.4,1.586A.259.259,0,0,1,1624.138,468.052ZM1675.6,466a.258.258,0,0,1-.186-.078c-.487-.5-1-1-1.518-1.472a.259.259,0,0,1,.348-.382c.528.482,1.047.984,1.541,1.494a.259.259,0,0,1-.186.439Zm-47.563-1.95a.259.259,0,0,1-.17-.453c.538-.47,1.1-.929,1.661-1.364a.259.259,0,0,1,.316.41c-.556.429-1.106.881-1.636,1.344A.258.258,0,0,1,1628.042,464.05Zm43.361-1.734a.258.258,0,0,1-.154-.051c-.564-.419-1.148-.825-1.736-1.208a.259.259,0,1,1,.282-.433c.6.389,1.19.8,1.762,1.226a.259.259,0,0,1-.154.466Zm-38.867-1.6a.259.259,0,0,1-.137-.478c.6-.377,1.23-.74,1.858-1.079a.259.259,0,1,1,.246.455c-.619.334-1.235.692-1.831,1.063A.256.256,0,0,1,1632.535,460.72Zm34.125-1.362a.254.254,0,0,1-.118-.029c-.624-.321-1.266-.628-1.909-.911a.258.258,0,1,1,.208-.473c.653.287,1.3.6,1.938.924a.259.259,0,0,1-.119.488Zm-29.153-1.2a.259.259,0,0,1-.1-.5c.657-.273,1.333-.53,2.008-.763a.259.259,0,0,1,.169.489c-.666.23-1.331.482-1.979.752A.26.26,0,0,1,1637.507,458.159Zm23.994-.952a.262.262,0,0,1-.08-.013c-.667-.216-1.351-.415-2.031-.59a.259.259,0,1,1,.129-.5c.691.178,1.385.38,2.062.6a.259.259,0,0,1-.08.5Zm-18.674-.768a.259.259,0,0,1-.059-.51c.7-.164,1.4-.308,2.1-.428a.259.259,0,1,1,.088.51c-.691.118-1.389.26-2.074.422A.265.265,0,0,1,1642.827,456.44Zm13.235-.522a.251.251,0,0,1-.039,0c-.694-.107-1.4-.193-2.1-.256a.259.259,0,1,1,.047-.515c.71.065,1.427.152,2.132.26a.259.259,0,0,1-.039.514Zm-7.707-.317a.259.259,0,0,1-.018-.516c.71-.05,1.432-.078,2.146-.084h0a.259.259,0,0,1,0,.517c-.7.006-1.415.034-2.114.083Z" transform="translate(-1621.24 -455)" fill="#91b3fa"/>
          <path id="Path_657" data-name="Path 657" d="M2414.147,823.947a.259.259,0,0,1-.256-.219q-.079-.507-.173-1.011a.259.259,0,0,1,.509-.095q.1.512.176,1.027a.258.258,0,0,1-.256.3Z" transform="translate(-2350.408 -794.19)" fill="#91b3fa"/>
        </g>
        <g id="Group_817" data-name="Group 817" transform="translate(7.181 8.263)">
          <path id="Path_658" data-name="Path 658" d="M1676.59,588.4a.416.416,0,0,0-.249-.413l-4.636-2.014a22.014,22.014,0,0,0-2.207-6.783l2.558-4.355a.415.415,0,0,0-.043-.48l-3.941-4.607a.415.415,0,0,0-.468-.116l-4.7,1.853a22.018,22.018,0,0,0-6.359-3.231l-1.272-4.892a.415.415,0,0,0-.37-.309l-6.044-.471a.415.415,0,0,0-.413.248l-2.014,4.636a22.016,22.016,0,0,0-6.783,2.207l-4.355-2.558a.415.415,0,0,0-.48.043l-4.607,3.941a.415.415,0,0,0-.116.468l1.853,4.7a22.011,22.011,0,0,0-3.231,6.359l-4.892,1.272a.415.415,0,0,0-.31.37l-.471,6.044a.415.415,0,0,0,.249.413l4.636,2.014a22.016,22.016,0,0,0,2.207,6.783l-2.558,4.355a.416.416,0,0,0,.042.48l3.941,4.607a.415.415,0,0,0,.468.116l4.7-1.853a22.011,22.011,0,0,0,6.359,3.231l1.271,4.892a.415.415,0,0,0,.37.31l6.044.471a.415.415,0,0,0,.413-.249l2.014-4.635a22.012,22.012,0,0,0,6.783-2.207l4.355,2.558a.415.415,0,0,0,.48-.043l4.607-3.941a.416.416,0,0,0,.116-.468l-1.853-4.7a22.019,22.019,0,0,0,3.231-6.359l4.892-1.271a.415.415,0,0,0,.31-.37Z" transform="translate(-1623.043 -562.58)" fill="#91b3fa"/>
          <path id="Path_659" data-name="Path 659" d="M1902.272,847.558a5.787,5.787,0,1,1,.986-.084A5.844,5.844,0,0,1,1902.272,847.558Zm.023-10.769a5.06,5.06,0,0,0-.853.073,5,5,0,1,0,3.728.846h0A4.958,4.958,0,0,0,1902.295,836.789Z" transform="translate(-1875.51 -815.011)" fill="#fff" opacity="0.7"/>
          <path id="Path_660" data-name="Path 660" d="M1789.474,745.693q-.593,0-1.191-.046a15.019,15.019,0,0,1-13.851-14.946q0-.593.046-1.191a15.016,15.016,0,0,1,26.382-8.595,15.1,15.1,0,0,1,1.81,2.635l-.682.369a14.312,14.312,0,0,0-1.717-2.5,14.241,14.241,0,0,0-25.019,8.151q-.044.567-.044,1.129a14.243,14.243,0,0,0,27.743,4.511l.736.246a15.026,15.026,0,0,1-14.213,10.236Z" transform="translate(-1762.805 -703.901)" fill="#fff" opacity="0.7"/>
        </g>
      </g>
      <g id="Group_822" data-name="Group 822" transform="translate(60.621 33.061)">
        <g id="Group_819" data-name="Group 819" transform="translate(0 21.32)">
          <path id="Path_661" data-name="Path 661" d="M2744.879,1224.24a.259.259,0,0,1-.222-.391c.174-.293.34-.593.494-.891a.259.259,0,1,1,.46.237c-.158.307-.329.616-.509.918A.258.258,0,0,1,2744.879,1224.24Z" transform="translate(-2711.912 -1218.224)" fill="#91b3fa"/>
          <path id="Path_662" data-name="Path 662" d="M2352.081,1228h-.021a18.233,18.233,0,0,1-2.094-.288.259.259,0,1,1,.1-.508,17.668,17.668,0,0,0,2.034.28.259.259,0,0,1-.02.517Zm3.382-.055a.259.259,0,0,1-.029-.516,17.66,17.66,0,0,0,2.024-.347.258.258,0,1,1,.117.5,18.136,18.136,0,0,1-2.084.358Zm-8.688-1.2a.26.26,0,0,1-.1-.019,18.047,18.047,0,0,1-1.908-.91.259.259,0,1,1,.249-.453,17.568,17.568,0,0,0,1.854.883.259.259,0,0,1-.1.5Zm13.95-.232a.259.259,0,0,1-.106-.495,17.441,17.441,0,0,0,1.823-.947.259.259,0,0,1,.265.444,17.958,17.958,0,0,1-1.877.975A.259.259,0,0,1,2360.725,1226.518Zm-18.622-2.574a.257.257,0,0,1-.166-.06,18.228,18.228,0,0,1-1.541-1.447.259.259,0,0,1,.375-.356,17.693,17.693,0,0,0,1.5,1.406.258.258,0,0,1-.166.457Zm23.2-.39a.259.259,0,0,1-.172-.452l.152-.137a17.725,17.725,0,0,0,1.3-1.316.258.258,0,0,1,.386.344,18.213,18.213,0,0,1-1.338,1.355l-.156.141A.258.258,0,0,1,2365.3,1223.554Zm-26.8-3.7a.258.258,0,0,1-.218-.119,18.007,18.007,0,0,1-1.034-1.845.259.259,0,0,1,.465-.226,17.487,17.487,0,0,0,1,1.792.259.259,0,0,1-.218.4Z" transform="translate(-2335.804 -1213.331)" fill="#91b3fa"/>
          <path id="Path_663" data-name="Path 663" d="M2319.283,1164.515a.259.259,0,0,1-.25-.193c-.089-.336-.169-.68-.239-1.021a.258.258,0,1,1,.507-.1c.068.331.146.665.232.992a.259.259,0,0,1-.25.325Z" transform="translate(-2318.789 -1162.992)" fill="#91b3fa"/>
        </g>
        <g id="Group_820" data-name="Group 820" transform="translate(2.366)">
          <path id="Path_664" data-name="Path 664" d="M2349.846,983.589a.259.259,0,0,1-.219-.4c.186-.3.383-.588.585-.871a.258.258,0,1,1,.421.3c-.2.275-.388.56-.568.846A.258.258,0,0,1,2349.846,983.589Z" transform="translate(-2349.588 -974.779)" fill="#91b3fa"/>
          <path id="Path_665" data-name="Path 665" d="M2414.4,896.746a.259.259,0,0,1-.238-.157,17.373,17.373,0,0,0-.9-1.81.259.259,0,1,1,.449-.256,18.018,18.018,0,0,1,.923,1.864.258.258,0,0,1-.238.36Zm-2.822-4.562a.258.258,0,0,1-.2-.091q-.2-.233-.405-.46c-.316-.346-.648-.683-.99-1a.259.259,0,1,1,.354-.378c.351.328.694.676,1.018,1.031q.214.234.417.473a.259.259,0,0,1-.2.426Zm-25.833-1.326a.259.259,0,0,1-.178-.446q.157-.15.318-.3c.4-.369.829-.723,1.264-1.053a.258.258,0,0,1,.313.412c-.422.321-.836.665-1.228,1.023q-.156.143-.309.289A.258.258,0,0,1,2385.746,890.858Zm21.784-2.193a.258.258,0,0,1-.138-.04,17.477,17.477,0,0,0-1.766-.978.259.259,0,1,1,.224-.466,18.058,18.058,0,0,1,1.819,1.007.259.259,0,0,1-.138.477Zm-17.4-.893a.259.259,0,0,1-.115-.49,18.1,18.1,0,0,1,1.914-.816.259.259,0,0,1,.175.487,17.488,17.488,0,0,0-1.859.793A.259.259,0,0,1,2390.134,887.772Zm12.483-1.252a.264.264,0,0,1-.067-.009,17.623,17.623,0,0,0-1.979-.405.258.258,0,0,1-.219-.293.255.255,0,0,1,.293-.219,18.174,18.174,0,0,1,2.038.417.259.259,0,0,1-.066.509Zm-7.373-.378a.259.259,0,0,1-.04-.514,18.189,18.189,0,0,1,2.07-.207.259.259,0,0,1,.022.517,17.689,17.689,0,0,0-2.011.2A.257.257,0,0,1,2395.243,886.142Z" transform="translate(-2382.73 -885.421)" fill="#91b3fa"/>
          <path id="Path_666" data-name="Path 666" d="M2772.118,1069.066a.259.259,0,0,1-.255-.219c-.052-.334-.115-.671-.186-1a.259.259,0,1,1,.506-.109c.073.34.137.687.191,1.031a.259.259,0,0,1-.216.3Z" transform="translate(-2739.251 -1053.545)" fill="#91b3fa"/>
        </g>
        <g id="Group_821" data-name="Group 821" transform="translate(3.814 4.355)">
          <path id="Path_667" data-name="Path 667" d="M2395.952,955.383a.213.213,0,0,0-.127-.212l-2.381-1.034a11.312,11.312,0,0,0-1.134-3.484l1.314-2.237a.213.213,0,0,0-.022-.247l-2.024-2.366a.214.214,0,0,0-.24-.06l-2.414.952a11.313,11.313,0,0,0-3.267-1.66l-.653-2.513a.214.214,0,0,0-.19-.159l-3.1-.242a.213.213,0,0,0-.212.128l-1.034,2.381a11.307,11.307,0,0,0-3.484,1.134l-2.237-1.314a.214.214,0,0,0-.247.022l-2.366,2.024a.214.214,0,0,0-.06.24l.952,2.414a11.311,11.311,0,0,0-1.66,3.267l-2.513.653a.214.214,0,0,0-.159.19l-.242,3.1a.213.213,0,0,0,.128.212l2.381,1.034a11.31,11.31,0,0,0,1.134,3.484l-1.314,2.237a.213.213,0,0,0,.022.247l2.024,2.367a.213.213,0,0,0,.24.06l2.414-.952a11.305,11.305,0,0,0,3.266,1.66l.653,2.513a.213.213,0,0,0,.19.159l3.1.242a.214.214,0,0,0,.212-.128l1.034-2.381a11.3,11.3,0,0,0,3.484-1.134l2.237,1.314a.213.213,0,0,0,.247-.022l2.366-2.024a.213.213,0,0,0,.06-.24l-.952-2.414a11.3,11.3,0,0,0,1.66-3.267l2.513-.653a.213.213,0,0,0,.159-.19Z" transform="translate(-2368.446 -942.12)" fill="#91b3fa"/>
          <path id="Path_668" data-name="Path 668" d="M2509.616,1086.426a3.161,3.161,0,1,1,.539-.046A3.2,3.2,0,0,1,2509.616,1086.426Zm.01-5.53a2.376,2.376,0,1,0,1.37.436h0A2.363,2.363,0,0,0,2509.625,1080.9Z" transform="translate(-2495.869 -1069.518)" fill="#fff" opacity="0.7"/>
          <path id="Path_669" data-name="Path 669" d="M2451.721,1034.146q-.312,0-.627-.024a7.9,7.9,0,1,1,6.619-13.015l.066.078a7.951,7.951,0,0,1,.814,1.179l0,0,.01.018.018.032.01.018.031.056-.682.369a7.2,7.2,0,0,0-.859-1.251h0a7.124,7.124,0,1,0,1.341,6.9l.736.246a7.908,7.908,0,0,1-7.479,5.387Z" transform="translate(-2438.021 -1012.49)" fill="#fff" opacity="0.7"/>
        </g>
      </g>
    </g>
    <g id="Group_826" data-name="Group 826" transform="translate(572.485 525.312)">
      <g id="Group_824" data-name="Group 824">
        <path id="Path_670" data-name="Path 670" d="M1879.578,1386.9a3.065,3.065,0,0,1,2.37-.816c9.307.837,26.673-3.646,38.022-15.259.788-.806,2.224-.351,3.128.324,12.622,9.434,33.544,11.387,40.807,11.787a3.064,3.064,0,0,1,2.876,2.745c6.605,63.794-34.931,86.911-43.545,90.991a3.072,3.072,0,0,1-2.935-.169c-42.935-26.743-41.1-61.522-41.692-87.292A3.068,3.068,0,0,1,1879.578,1386.9Z" transform="translate(-1878.608 -1370.396)" fill="#00affe"/>
        <path id="Path_671" data-name="Path 671" d="M1977.569,1538.548a1.023,1.023,0,0,1-.551-.16c-16.46-10.522-27.188-23.1-32.8-38.457-5.01-13.714-5.255-27.679-5.471-40l-.029-1.643a1,1,0,0,1,.29-.728,1.016,1.016,0,0,1,.731-.305h0c10.194,0,25.494-4.5,36.716-14.557a1.017,1.017,0,0,1,1.241-.09c12.33,8.181,29.918,10.564,39.305,11.255a1.013,1.013,0,0,1,.938.926c2.182,24.891-3,45.94-15.388,62.561a73.863,73.863,0,0,1-24.52,21.086h0A1.014,1.014,0,0,1,1977.569,1538.548Zm.272-.483.1.186-.1-.186a73.422,73.422,0,0,0,24.376-20.964c12.329-16.536,17.48-37.489,15.307-62.275a.6.6,0,0,0-.552-.546c-9.428-.695-27.1-3.09-39.506-11.324a.6.6,0,0,0-.731.053c-11.3,10.129-26.721,14.663-36.986,14.663h0a.606.606,0,0,0-.441.181.588.588,0,0,0-.17.427l.029,1.643c.216,12.288.46,26.216,5.446,39.864,5.577,15.266,16.25,27.777,32.63,38.248A.6.6,0,0,0,1977.842,1538.065Z" transform="translate(-1934.104 -1436.905)" fill="#fff" opacity="0.61"/>
      </g>
      <g id="Group_825" data-name="Group 825" transform="translate(24.419 22.47)">
        <path id="Path_672" data-name="Path 672" d="M2282.286,1681.046h-1.942a1.746,1.746,0,0,1-1.746-1.746v-6.636a4.3,4.3,0,0,0-4.3-4.3h-12.031a4.3,4.3,0,0,0-4.3,4.3v6.636a1.746,1.746,0,0,1-1.746,1.746h-1.941a1.746,1.746,0,0,1-1.746-1.746v-6.636a9.734,9.734,0,0,1,9.734-9.734H2274.3a9.734,9.734,0,0,1,9.734,9.734v6.636A1.746,1.746,0,0,1,2282.286,1681.046Z" transform="translate(-2248.231 -1662.93)" fill="#fff" opacity="0.61"/>
        <path id="Path_673" data-name="Path 673" d="M2232.981,1919.172h-32.82a3.642,3.642,0,0,0-3.642,3.641V1948a3.642,3.642,0,0,0,3.642,3.642h32.82a3.642,3.642,0,0,0,3.642-3.642v-25.188A3.642,3.642,0,0,0,2232.981,1919.172Zm-11.714,24.344a1.349,1.349,0,0,1-1.312,1.664h-6.768a1.349,1.349,0,0,1-1.312-1.665l1.579-6.574a6.084,6.084,0,1,1,6.233,0Z" transform="translate(-2196.519 -1899.49)" fill="#fff" opacity="0.61"/>
      </g>
    </g>
    <g id="Group_828" data-name="Group 828" transform="translate(464.778 501.117)">
      <path id="Path_674" data-name="Path 674" d="M679.586,1811.973s2.658.141,2.984,5.609a31.585,31.585,0,0,1-14.49,6.841c-.625.1.874-4.267,1.1-4.858C670.252,1816.751,673.628,1814.939,679.586,1811.973Z" transform="translate(-653.214 -1753.861)" fill="url(#linear-gradient-4)"/>
      <path id="Path_675" data-name="Path 675" d="M758.837,1476.664h-5.609s-17.217-19.014-28.509-20.933c0,0-7.86,10.034.419,28.781a2.736,2.736,0,0,0,3.918,1.291,2.245,2.245,0,0,0,.9-1.067l-.666-16.007s14.686,12.844,17.238,15.323S762.052,1485.019,758.837,1476.664Z" transform="translate(-702.528 -1424.982)" fill="#7d97f4"/>
      <path id="Path_676" data-name="Path 676" d="M502.6,2187.5a21.091,21.091,0,0,1,11.5-5.034l1.829,1.118a19.924,19.924,0,0,1-3.3,3.537,23.017,23.017,0,0,1-7.487,3.011C502.716,2190.453,502.357,2188.981,502.6,2187.5Z" transform="translate(-500.527 -2095.894)" fill="url(#linear-gradient-5)"/>
      <path id="Path_677" data-name="Path 677" d="M655.546,1876.942c1.448.469,2.085,2.521,5.76,1.164a32.53,32.53,0,0,0,7.558-3.982c.03.264.056.541.073.835,0,0-6.5,6.182-14.825,7.5a.829.829,0,0,1-.895-1.117A20.908,20.908,0,0,1,655.546,1876.942Z" transform="translate(-639.58 -1811.238)" fill="#91b3fa"/>
      <path id="Path_678" data-name="Path 678" d="M476.659,2245.2a19.409,19.409,0,0,1,1.771-1.759c-.248,1.484.112,2.957,2.548,2.632a23.023,23.023,0,0,0,7.487-3.011,16.185,16.185,0,0,1-10.9,4.183A1.236,1.236,0,0,1,476.659,2245.2Z" transform="translate(-476.352 -2151.843)" fill="#91b3fa"/>
      <path id="Path_679" data-name="Path 679" d="M677.706,1781.1l-26.268.284s-15,12.411-17.722,31.336c0,0-.452,1.392,2.26,1.63a52.077,52.077,0,0,0,14.983-16.4c7.251-12.841,21.617-7.061,21.617-7.061,6.9,1.523,12.395.957,16.414-5.229Z" transform="translate(-621.602 -1725.357)" fill="#7d97f4"/>
      <path id="Path_680" data-name="Path 680" d="M924.96,1505.6s-2.828,14.172-16.683,19.778l-4.929-.581-1.163,1.854,11.561.368a31.62,31.62,0,0,0,15.118-14.579C929.037,1512.093,931.92,1506.14,924.96,1505.6Z" transform="translate(-869.477 -1471.025)" fill="url(#linear-gradient-6)"/>
      <path id="Path_681" data-name="Path 681" d="M1173.7,1363.091a75.684,75.684,0,0,0,3.907-17.235,37.154,37.154,0,0,0-3.823-2.894,1.063,1.063,0,0,1-.415-1.379c1.081-2.24,7.619-11.033,8.109-11.155,2.662-.665,13.579-5.855,21.268,4.662,3.3,4.514-.655,18.408-15.625,32.8C1182.306,1368.671,1177.8,1367.283,1173.7,1363.091Z" transform="translate(-1119.736 -1307.582)" fill="url(#linear-gradient-7)"/>
      <path id="Path_682" data-name="Path 682" d="M971.19,1578.635s-8.934,10.579-20.357,12.125c0,0-2.952-2.691-5.147-1.73s-5.205,5.2-5.205,5.2h14.667s13.868-.489,20.8-8.9C975.388,1582.391,973.718,1580.634,971.19,1578.635Z" transform="translate(-904.831 -1538.446)" fill="url(#linear-gradient-8)"/>
      <path id="Path_683" data-name="Path 683" d="M1333.07,1256.236l1.955,6.52a.717.717,0,0,1-.278.8,7.283,7.283,0,0,1-6.775.681,1.063,1.063,0,0,1-.684-.913l-.463-5.68Z" transform="translate(-1261.499 -1240.81)" fill="url(#linear-gradient-9)"/>
      <g id="Group_827" data-name="Group 827" transform="translate(55.856 0)">
        <path id="Path_684" data-name="Path 684" d="M1259.116,1133.931s.961,6.759,3.557,8.837,7.655.514,9.363-4.582l-3.4-8.712Z" transform="translate(-1254.848 -1123.786)" fill="url(#linear-gradient-10)"/>
        <path id="Path_685" data-name="Path 685" d="M1217.717,1066.731a.334.334,0,0,1-.435-.268,8.743,8.743,0,0,0-.8-2.7s.248-.886-2.241.453-6.227,3.307-8.427,2.136c-2.146-1.142-4.319-6.892,1.352-5.827a.334.334,0,0,0,.4-.35,3.449,3.449,0,0,1,2.226-3.817,3.164,3.164,0,0,1,3.652.838.333.333,0,0,0,.521-.008,3.859,3.859,0,0,1,4.76-1.433c2.032.9,2.348,2.147,2.315,2.927a.334.334,0,0,0,.475.318,2.008,2.008,0,0,1,2.582.766c1.326,1.661-.569,3.1-1.137,3.479a.335.335,0,0,0-.152.276c-.005.864-.14,4.632-2.028,6.757a.337.337,0,0,1-.561-.1l-1.454-3.465a.336.336,0,0,0-.413-.19Z" transform="translate(-1203.548 -1055.405)" fill="url(#linear-gradient-11)"/>
        <path id="Path_686" data-name="Path 686" d="M1387.6,1179.852s.888-3.616,2.237-2.442-.352,3.759-1.9,4.251Z" transform="translate(-1373.466 -1167.822)" fill="url(#linear-gradient-12)"/>
      </g>
      <path id="Path_687" data-name="Path 687" d="M723.867,1501.9l-6.585-21.961a2.245,2.245,0,0,0-2-1.6l-8.891-.608a1.261,1.261,0,0,0-1.276,1.676l7.362,20.973a1.846,1.846,0,0,0,1.556,1.225l8.755.972Z" transform="translate(-687.479 -1445.294)" fill="url(#linear-gradient-13)"/>
      <path id="Path_688" data-name="Path 688" d="M787.923,1574.958c.492.992,1.341,1.574,1.9,1.3s.608-1.3.116-2.3-1.341-1.574-1.9-1.3S787.432,1573.965,787.923,1574.958Z" transform="translate(-763.68 -1532.869)" fill="#91b3fa"/>
      <path id="Path_689" data-name="Path 689" d="M926.035,1769.8h.043l18.656-.943a.836.836,0,1,0-.084-1.67l-18.656.943a.836.836,0,0,0,.042,1.671Z" transform="translate(-890.724 -1712.515)" fill="url(#linear-gradient-14)"/>
      <path id="Path_690" data-name="Path 690" d="M1228.275,1442.113a.129.129,0,0,1-.129-.129,39.914,39.914,0,0,1,1.517-9.2.129.129,0,0,1,.248.073,39.618,39.618,0,0,0-1.507,9.129.129.129,0,0,1-.129.13Z" transform="translate(-1170.401 -1403.71)" fill="url(#linear-gradient-15)"/>
      <path id="Path_691" data-name="Path 691" d="M1338.734,1471.962a.129.129,0,0,1-.1-.209c.041-.052,4.1-5.207,5.484-8.724a.128.128,0,0,1,.168-.073.129.129,0,0,1,.073.168c-1.4,3.552-5.48,8.737-5.521,8.789A.13.13,0,0,1,1338.734,1471.962Z" transform="translate(-1272.375 -1431.644)" fill="url(#linear-gradient-16)"/>
      <path id="Path_692" data-name="Path 692" d="M1405.97,1564.92l-.738-1.043a.129.129,0,1,1,.211-.15l.617.872c5.754-2.522,9.316-9.406,9.351-9.476a.129.129,0,0,1,.23.118c-.036.071-3.679,7.112-9.576,9.637Z" transform="translate(-1333.863 -1516.676)" fill="url(#linear-gradient-17)"/>
    </g>
  </g>
</svg>
